# Blender v2.74 (sub 0) OBJ File: 'enemy.blend'
# www.blender.org
mtllib enemy.mtl
v 0.000000 3.603742 -0.283817
v 1.369369 -1.000000 -0.386103
v -0.000000 -1.000000 -0.508291
v -2.738738 -1.000000 -0.263913
v 0.000001 3.603742 0.021765
v -1.369369 -1.000000 -0.386102
v -0.000000 -1.000000 0.807960
v 1.369368 -2.091636 0.240668
v 1.369369 -1.000001 0.272023
v 2.738737 -1.000001 -0.263914
v -1.369369 -1.000000 0.272023
v 1.369368 -2.091636 -0.043149
v -0.000001 -3.183271 0.177617
v -1.369370 -2.091636 -0.043148
v -0.000001 -3.183271 0.745250
v -1.369370 -2.091636 0.240668
v -4.738738 -3.126858 -0.263913
v 3.369368 -4.218494 0.098760
v 4.738737 -3.126859 -0.263914
v -3.369370 -4.218493 0.098760
vt 0.000000 0.000000
vt 1.000000 0.000000
vt 1.000000 1.000000
vt 0.000000 1.000000
vn -0.364300 -0.026700 0.930900
vn -0.359900 0.157100 0.919700
vn 0.364300 -0.026700 0.930900
vn -0.859400 0.511300 0.000000
vn -0.084800 -0.298600 -0.950600
vn 0.359900 0.157100 0.919700
vn 0.088800 0.048500 -0.994900
vn 0.859400 0.511300 -0.000000
vn -0.088800 0.048500 -0.994900
vn 0.084800 -0.298600 -0.950600
vn -0.623400 -0.781900 0.000000
vn 0.623400 -0.781900 0.000000
vn -0.148200 -0.139400 -0.979100
vn 0.231500 0.153600 0.960600
vn -0.728500 -0.685000 0.000000
vn 0.061200 -0.123600 -0.990400
vn 0.728500 -0.685000 0.000000
vn -0.148200 0.139400 0.979100
vn -0.061200 -0.123600 -0.990400
vn 0.148200 0.139400 0.979100
vn 0.148200 -0.139400 -0.979100
vn -0.231500 0.153600 0.960600
usemtl Material
s off
f 4/1/1 16/2/1 11/3/1
f 5/1/2 4/2/2 11/3/2
f 9/1/3 8/2/3 10/3/3
f 5/1/4 1/2/4 4/3/4
f 4/1/5 6/2/5 14/3/5
f 5/1/6 7/2/6 9/3/6
f 1/2/7 10/3/7 2/4/7
f 7/1/1 11/2/1 16/3/1
f 1/1/8 5/2/8 10/3/8
f 8/1/3 9/2/3 7/3/3
f 1/1/9 3/2/9 6/3/9
f 14/1/5 6/2/5 3/3/5
f 3/1/10 2/2/10 12/3/10
f 10/1/10 12/2/10 2/3/10
f 16/2/11 14/3/11 13/4/11
f 13/2/12 12/3/12 8/4/12
f 10/2/13 19/3/13 18/4/13
f 10/1/14 8/2/14 18/3/14
f 8/1/15 12/2/15 18/3/15
f 4/1/16 14/2/16 20/3/16
f 14/1/17 16/2/17 20/3/17
f 4/2/18 17/3/18 20/4/18
f 7/4/2 5/1/2 11/3/2
f 10/4/6 5/1/6 9/3/6
f 3/1/7 1/2/7 2/4/7
f 15/4/1 7/1/1 16/3/1
f 15/4/3 8/1/3 7/3/3
f 4/4/9 1/1/9 6/3/9
f 13/4/5 14/1/5 3/3/5
f 13/4/10 3/1/10 12/3/10
f 15/1/11 16/2/11 13/4/11
f 15/1/12 13/2/12 8/4/12
f 12/1/19 10/2/19 18/4/19
f 19/4/20 10/1/20 18/3/20
f 17/4/21 4/1/21 20/3/21
f 16/1/22 4/2/22 20/4/22
